<svg id="Layer_1" data-name="Layer 1" xmlns="http://www.w3.org/2000/svg" viewBox="0 0 315 315"><title>process-3</title><rect x="0.07199" y="-0.35131" width="315" height="315" fill="none"/><path d="M207.66761,147.00172l.07171-.08145c7.8734-8.8703,12.38867-21.57149,12.38867-34.84816,0-31.31209-26.4595-54.92342-61.5467-54.92342-36.40195,0-63.853,24.479-63.853,56.93935v6.247h48.07791l.66135-5.50155c1.16866-9.73705,8.08057-11.78132,13.67419-11.78132,5.2749,0,14.20274,2.62771,14.20274,12.47543,0,2.46835-.9907,14.78088-20.53918,14.78088h-6.24613v.01417q-1.33068-.01461-2.68349-.01417h-6.24613v12.49225h6.24613c64.03807,0,72.67286,25.96282,72.67286,51.35989,0,28.31518-24.58433,50.49491-55.96724,50.49491-26.10447,0-53.92829-18.33378-57.58212-46.26472h25.32891c4.26383,15.59008,18.78,22.7552,31.676,22.7552,18.55334,0,31.01726-11.65471,31.01726-29.00221,0-14.57282-9.104-31.59274-34.76051-31.59274H135.62954v12.49314h18.63125c20.09739,0,22.26826,13.35724,22.26826,19.0996,0,15.31828-14.17884,16.50907-18.525,16.50907-13.67331,0-19.47233-9.23683-20.28508-17.14652l-.57548-5.60868H88.1032v6.24613c0,16.01859,7.10491,32.24259,19.49358,44.51085a71.2467,71.2467,0,0,0,44.73838,20.24347v.25055h12.49137v-.247c35.35547-2.81541,62.21425-29.36078,62.21425-62.741C227.04078,173.12655,220.73357,157.51965,207.66761,147.00172Zm-9.27136-8.3745-1.43338,1.61576a86.0882,86.0882,0,0,0-20.33023-6.77556,26.56768,26.56768,0,0,0,7.20407-17.9398c0-16.39132-13.429-24.96768-26.695-24.96768-9.95308,0-21.06684,4.65693-24.93493,17.282H107.71984c3.11288-19.50243,20.71625-38.201,50.86144-38.201,27.96547,0,49.05445,18.2417,49.05445,42.43116C207.63573,122.18189,204.18111,132.10929,198.39625,138.62722Z" fill="#fff"/></svg>