<svg id="Layer_1" data-name="Layer 1" xmlns="http://www.w3.org/2000/svg" viewBox="0 0 315 315"><title>process-2</title><rect x="-0.07251" y="-0.35131" width="315" height="315" fill="none"/><path d="M147.90076,208.00969c3.93358-13.2026,11.69908-17.13083,25.98875-24.35235,19.53236-9.76573,52.20489-26.11,52.20489-65.675,0-33.888-24.74206-58.10571-60.92548-60.61782v-.21581H152.5861v.21848c-46.148,3.26208-63.53478,42.2938-63.53478,67.28823v6.29141H91.3708v.10612H140.5089V121.00718c1.44645-9.28507,8.45573-15.30093,18.3686-15.30093,5.24537,0,9.60878,1.56237,12.28765,4.4,2.381,2.52281,3.4547,6.12465,3.19252,10.66285-.59213,9.19233-6.19421,12.34472-19.94079,19.20954-4.935,2.46484-10.52819,5.25875-16.4736,8.874-20.23685,12.14229-46.8641,33.61335-49.04,80.9162H88.7606v27.3799h12.58371V236.0602c0-23.5462,4.8958-53.51133,43.10442-76.43686,5.52984-3.36285,10.87509-6.03191,15.58986-8.38706,13.842-6.913,25.79523-12.88246,26.87962-29.69939.46461-8.05978-1.81831-14.99951-6.60264-20.06742-5.08039-5.3827-12.6934-8.346-21.43806-8.346-16.14275,0-28.31,10.55851-30.76148,25.7988H101.9088c3.18806-35.70008,35.931-49.19072,56.96871-49.19072,27.19441,0,54.63406,14.91925,54.63406,48.2508,0,28.01216-19.48509,41.25757-41.98436,52.77027l-8.90518,4.46953.04548.09274c-24.87315,13.42911-30.8997,24.66-30.8997,75.54242v6.29141H224.6426v-49.139ZM212.5119,244.565H144.38006c.10077-9.74433.45391-17.57582,1.162-23.97157H212.5119Z" fill="#fff"/></svg>