<svg id="Layer_1" data-name="Layer 1" xmlns="http://www.w3.org/2000/svg" viewBox="0 0 45 48"><title>contact-icon-location</title><path d="M22.5,4.92284A15.5,15.5,0,0,1,33.46017,31.383L22.5,42.34314,11.53983,31.383A15.5,15.5,0,0,1,22.5,4.92284m0-4A19.439,19.439,0,0,0,8.71143,6.63425l0,0a19.5,19.5,0,0,0,0,27.57712L22.5,48,36.2886,34.2114a19.5,19.5,0,0,0,0-27.57712l0,0A19.439,19.439,0,0,0,22.5.92284Z" fill="#f43"/><circle cx="22.5" cy="20.5" r="7.5" transform="translate(-7.90559 21.91421) rotate(-45)" fill="none" stroke="#f43" stroke-miterlimit="10" stroke-width="4"/></svg>