<svg id="Layer_1" data-name="Layer 1" xmlns="http://www.w3.org/2000/svg" viewBox="0 0 48.89993 48"><title>contact-icon-phone</title><path d="M27.1089,30.6167a6.70461,6.70461,0,0,1-9.47705.78027,6.779,6.779,0,0,1-.78418-9.52344l3.772-4.46289L7.04982,5.86914,5.876,7.249l-.01562-.01465-.2417.25C5.37257,7.73877-.3994,13.81445.022,22.52344.32668,28.84131,3.75392,34.81885,10.208,40.29c6.16357,5.2251,12.07959,7.86621,17.61182,7.86572.4707,0,.93994-.019,1.40479-.05762.5332-.04395,1.062-.11279,1.5708-.2041a18.6762,18.6762,0,0,0,12.085-8.334l1.58838-1.86621L30.88869,26.14355Zm11.99365,7.70068A14.87651,14.87651,0,0,1,30.126,44.13672c-5.20166.92041-11.07324-1.35205-17.45068-6.75781C7.07277,32.62988,4.09914,27.582,3.836,22.376A17.80164,17.80164,0,0,1,7.38673,11.34326l7.67236,6.52539-1.23,1.4541a10.73773,10.73773,0,0,0,1.24365,15.084A10.657,10.657,0,0,0,30.12746,33.1665l1.2207-1.44531Z" fill="#f43"/><rect x="14.68013" y="-0.98619" width="3.81802" height="19.45648" transform="translate(-0.84206 15.6541) rotate(-49.41804)" fill="#f43"/><rect x="38.36013" y="19.10666" width="3.81789" height="19.45706" transform="translate(-7.82789 40.65673) rotate(-49.41381)" fill="#f43"/></svg>