<svg id="Layer_1" data-name="Layer 1" xmlns="http://www.w3.org/2000/svg" viewBox="0 0 44 48"><title>contact-icon-fax</title><path d="M40.77572,13.86083H36.1684V4.59951H7.8316v9.26132H3.22428A3.22844,3.22844,0,0,0,0,17.08582V38.39717a3.22844,3.22844,0,0,0,3.22428,3.225H7.8316V48H36.1684V41.62215h4.60732A3.22844,3.22844,0,0,0,44,38.39717V17.08582A3.22844,3.22844,0,0,0,40.77572,13.86083ZM11.384,8.15329H32.616v5.70754H11.384ZM32.616,44.44622H11.384V33.98782H32.616Zm7.8316-6.37785H36.1684V30.434H7.8316v7.63433H3.55236V17.41461H40.44764Z" fill="#f43"/><circle cx="33.98184" cy="24.15342" r="2.53417" fill="#f43"/><circle cx="26.4778" cy="24.15342" r="2.53417" fill="#f43"/></svg>