<svg id="Layer_1" data-name="Layer 1" xmlns="http://www.w3.org/2000/svg" viewBox="0 0 45 48"><title>home-icon-coin</title><path d="M22.54322,31.93252C35.34506,31.93252,45,27.088,45,20.66222V11.27031C45,4.84451,35.34506,0,22.54322,0,9.74186,0,.08692,4.84451.08692,11.27031v9.39191C.08692,27.088,9.74186,31.93252,22.54322,31.93252ZM41.25689,20.66222c0,1.82-1.87132,3.74659-5.614,5.19484V24.41895a1.87133,1.87133,0,1,0-3.74264,0v2.65622A44.14642,44.14642,0,0,1,24.415,28.1327V26.29734a1.87157,1.87157,0,1,0-3.74311,0V28.1327a26.71719,26.71719,0,0,1-7.48528-1.05754V24.41895a1.87133,1.87133,0,1,0-3.74264,0v1.43811c-3.74311-1.44825-5.61443-3.37486-5.61443-5.19484V17.66881c3.74311,2.98268,10.721,4.8718,18.71367,4.8718s14.971-1.88912,18.71367-4.8718ZM22.47463,3.75673c10.71111,0,18.71367,3.96588,18.71367,7.51358s-8.00256,7.51352-18.71367,7.51352S3.761,14.818,3.761,11.27031,11.76352,3.75673,22.47463,3.75673Z" fill="#fff"/><path d="M14.53738,11.29819a16.34842,16.34842,0,0,1,7.93725-1.90628,16.64535,16.64535,0,0,1,7.91752,1.94123,1.85918,1.85918,0,0,0,2.203-.3307A1.881,1.881,0,0,0,32.185,8.02519a20.29461,20.29461,0,0,0-9.71038-2.39007A20.16938,20.16938,0,0,0,12.72807,8.01a1.876,1.876,0,0,0-.40123,2.96546A1.85515,1.85515,0,0,0,14.53738,11.29819Z" fill="#fff"/><path d="M22.54369,35.803C7.97954,35.803.21941,28.77766,0,28.66908v5.06739c4.90123,3.38753,13.14857,6.31014,22.54369,6.31014,9.33781,0,17.5438-2.89832,22.45631-6.24937V28.72189C44.81348,28.82558,37.08624,35.803,22.54369,35.803Z" fill="#fff"/><path d="M0,37.51271V42.5801C4.90123,45.96763,13.14857,48,22.54369,48,31.8815,48,40.08749,45.99192,45,42.64087V37.56552c-.18652.10369-6.2299,6.19095-22.45631,6.19095C6.67248,43.75647.21941,37.62135,0,37.51271Z" fill="#fff"/></svg>