<svg id="Layer_1" data-name="Layer 1" xmlns="http://www.w3.org/2000/svg" viewBox="0 0 58 48"><title>home-icon-legal</title><path d="M47.10891,7.73657H37.74328l-.0825-.39007A8.70558,8.70558,0,0,0,28.71047,0a8.70558,8.70558,0,0,0-8.95031,7.34651l-.0825.39007H10.30359L1.81453,30.17111H6.05344l5.57672-14.74226L18.48563,33.5246H0v2.08022C0,42.43961,5.25984,48,11.72484,48c6.46547,0,11.72484-5.56039,11.72484-12.39518v-.39929L14.53172,11.897h5.14594l.0825.39007a8.70559,8.70559,0,0,0,8.95031,7.346,8.70559,8.70559,0,0,0,8.95031-7.346l.0825-.39007h4.837l-6.855,18.27409h4.23891L45.63188,15.031,52.63547,33.5246H34.15031v2.08022C34.15031,42.43961,39.41016,48,45.87516,48S57.6,42.43961,57.6,35.60482v-.39929ZM18.97219,38.37412c-1.06125,2.71615-3.922,5.46593-7.33688,5.46593-3.41437,0-6.27562-2.74978-7.33687-5.46593L4.02891,37.685H19.24172Zm9.73828-22.901a5.51592,5.51592,0,0,1-5.35031-5.65635,5.51592,5.51592,0,0,1,5.35031-5.65635,5.51592,5.51592,0,0,1,5.35031,5.65635A5.51592,5.51592,0,0,1,28.71047,15.47314Zm24.412,22.901c-1.06125,2.71615-3.922,5.46593-7.33687,5.46593S39.51,41.09027,38.44875,38.37412l-.26953-.68907H53.392Z" fill="#fff"/></svg>