<svg id="Layer_1" data-name="Layer 1" xmlns="http://www.w3.org/2000/svg" viewBox="0 0 48 48"><title>home-icon-tenant</title><polygon points="38.526 44.095 9.48 44.095 9.48 28.052 5.551 28.052 5.551 48 42.455 48 42.455 28.052 38.526 28.052 38.526 44.095" fill="#fff"/><polygon points="24.09 0.095 24 0 0 25.439 2.866 28.11 24 5.708 45.049 28.02 45.134 28.11 48 25.439 24.09 0.095" fill="#fff"/><path d="M17.53908,41.702H21.468V34.13221a2.532,2.532,0,0,1,5.064,0V41.702h3.92918V34.13221a6.46117,6.46117,0,0,0-12.92209,0Z" fill="#fff"/><path d="M24.003,26.97885a6.42068,6.42068,0,1,0-6.461-6.42055A6.44819,6.44819,0,0,0,24.003,26.97885Zm0-8.93631a2.51581,2.51581,0,1,1-2.53187,2.51576A2.527,2.527,0,0,1,24.003,18.04254Z" fill="#fff"/></svg>