<svg id="Layer_1" data-name="Layer 1" xmlns="http://www.w3.org/2000/svg" viewBox="0 0 124 60"><title>logo-footer</title><path d="M87.88278,32.49239,62,15.34909,36.11722,32.49239V0h19.6966V14.28711L62,10.18971l6.1864,4.09763V0H87.88278ZM72.4909,17.13822,83.57827,24.4819V4.30008H72.4909ZM40.42173,4.30008V24.4819l11.08759-7.34369V4.30008Z" fill="#fff"/><path d="M87.88278,60H68.1864V35.74552L62,31.73409l-6.18618,4.01143V60H36.11722V43.39112L62,26.60741,87.88278,43.39112ZM72.4909,55.69992H83.57827V45.72637L72.4909,38.53673Zm-32.06918,0H51.50932V38.53673L40.42173,45.72637Z" fill="#fff"/><path d="M103.17293,28.67623h-1.58464V27.40474h.87639a.766.766,0,0,0,.78059-.791V26.1938h1.5123l.01222,7.67578h-1.59686Z" fill="#fff"/><path d="M106.29675,28.62837a2.58333,2.58333,0,0,1,5.16253-.04785,3.35512,3.35512,0,0,1-.348,1.42676c-.38418.82813-1.57291,2.915-2.137,3.8623h-1.741l1.633-2.80664A2.39858,2.39858,0,0,1,106.29675,28.62837Zm1.549,0a1.03231,1.03231,0,1,0,1.03231-1.03125A.97586.97586,0,0,0,107.8457,28.62837Z" fill="#fff"/><path d="M117.40533,31.4233a2.58222,2.58222,0,0,1-5.16253-.0127,3.99256,3.99256,0,0,1,.22826-1.24707,34.491,34.491,0,0,1,2.2572-3.98145h1.74056l-1.63254,2.80664A2.39844,2.39844,0,0,1,117.40533,31.4233Zm-1.549,0a1.03231,1.03231,0,1,0-1.03231,1.03125A.97528.97528,0,0,0,115.85638,31.4233Z" fill="#fff"/><path d="M124,31.57857a2.55007,2.55007,0,0,1-2.72546,2.35059,2.519,2.519,0,0,1-2.701-2.35059,2.00972,2.00972,0,0,1,1.24835-1.8584v-.1084a1.72977,1.72977,0,0,1-.84022-1.499,2.163,2.163,0,0,1,2.32905-1.99121,2.10956,2.10956,0,0,1,2.28115,1.93164,1.814,1.814,0,0,1-.84071,1.54688v.12012A2.01611,2.01611,0,0,1,124,31.57857Zm-1.633-.05957a1.08814,1.08814,0,1,0-1.06848.959A1.00362,1.00362,0,0,0,122.367,31.519Zm-1.9087-3.2627a.75242.75242,0,0,0,.82849.708.7218.7218,0,1,0-.82849-.708Z" fill="#fff"/><path d="M5.1285,32.51561v1.35952H0V26.26092H5.01989v1.35952H1.42653v1.71911H4.69318v1.35952H1.42653v1.81653Z" fill="#fff"/><path d="M8.932,33.92916a2.59149,2.59149,0,0,1-2.82025-2.51268H7.52717A1.31934,1.31934,0,0,0,8.9209,32.58115c.37015,0,1.1109-.13108,1.1109-.83785,0-.64212-.62062-.90251-1.24123-1.14253-1.02357-.4021-2.47182-.89188-2.47182-2.3382a2.21789,2.21789,0,0,1,2.48246-2.06718,2.23341,2.23341,0,0,1,2.46074,2.02378H9.86822A1.02088,1.02088,0,0,0,8.77949,27.523c-.52265,0-.95841.26128-.95841.73954,0,.46764.42468.65275,1.16543.98931.79483.35959,2.4931.78383,2.4931,2.50205A2.25828,2.25828,0,0,1,8.932,33.92916Z" fill="#fff"/><path d="M17.766,27.60982H15.70821v6.26531H14.24932V27.60982H12.1911V26.26092H17.766Z" fill="#fff"/><path d="M23.08333,28.7984a2.43135,2.43135,0,0,1-2.541,2.53836H18.931V26.26092h1.61138A2.43112,2.43112,0,0,1,23.08333,28.7984Zm-.99476-.02126a1.45132,1.45132,0,0,0-1.54622-1.55969H19.9182v3.16188h.62416A1.48544,1.48544,0,0,0,22.08858,28.77715Z" fill="#fff"/><rect x="18.92259" y="32.96731" width="3.96033" height="0.90782" fill="#fff"/></svg>