<svg id="Layer_1" data-name="Layer 1" xmlns="http://www.w3.org/2000/svg" viewBox="0 0 124 60"><title>logo-footer</title><path d="M90.48189,32.49239,64.59911,15.34909,38.71633,32.49239V0h19.6966V14.28711l6.18618-4.09741,6.1864,4.09763V0H90.48189ZM75.09,17.13822,86.17738,24.4819V4.30008H75.09ZM43.02083,4.30008V24.4819l11.08759-7.34369V4.30008Z" fill="#fff"/><path d="M90.48189,60H70.7855V35.74552l-6.1864-4.01143-6.18618,4.01143V60H38.71633V43.39112L64.59911,26.60741,90.48189,43.39112ZM75.09,55.69992H86.17738V45.72637L75.09,38.53673Zm-32.06918,0H54.10843V38.53673L43.02083,45.72637Z" fill="#fff"/><path d="M103.17293,28.67623h-1.58464V27.40474h.87639a.766.766,0,0,0,.78059-.791V26.1938h1.5123l.01222,7.67578h-1.59686Z" fill="#fff"/><path d="M106.29675,28.62837a2.58333,2.58333,0,0,1,5.16253-.04785,3.35512,3.35512,0,0,1-.348,1.42676c-.38418.82813-1.57291,2.915-2.137,3.8623h-1.741l1.633-2.80664A2.39858,2.39858,0,0,1,106.29675,28.62837Zm1.549,0a1.03231,1.03231,0,1,0,1.03231-1.03125A.97586.97586,0,0,0,107.8457,28.62837Z" fill="#fff"/><path d="M117.40533,31.4233a2.58222,2.58222,0,0,1-5.16253-.0127,3.99256,3.99256,0,0,1,.22826-1.24707,34.491,34.491,0,0,1,2.2572-3.98145h1.74056l-1.63254,2.80664A2.39844,2.39844,0,0,1,117.40533,31.4233Zm-1.549,0a1.03231,1.03231,0,1,0-1.03231,1.03125A.97528.97528,0,0,0,115.85638,31.4233Z" fill="#fff"/><path d="M124,31.57857a2.55007,2.55007,0,0,1-2.72546,2.35059,2.519,2.519,0,0,1-2.701-2.35059,2.00972,2.00972,0,0,1,1.24835-1.8584v-.1084a1.72977,1.72977,0,0,1-.84022-1.499,2.163,2.163,0,0,1,2.32905-1.99121,2.10956,2.10956,0,0,1,2.28115,1.93164,1.814,1.814,0,0,1-.84071,1.54688v.12012A2.01611,2.01611,0,0,1,124,31.57857Zm-1.633-.05957a1.08814,1.08814,0,1,0-1.06848.959A1.00362,1.00362,0,0,0,122.367,31.519Zm-1.9087-3.2627a.75242.75242,0,0,0,.82849.708.7218.7218,0,1,0-.82849-.708Z" fill="#fff"/><path d="M5.65474,32.37056v1.499H0V25.47408H5.535v1.499H1.57291v1.89551H5.17475v1.499H1.57291v2.00293Z" fill="#fff"/><path d="M9.8485,33.92916a2.8574,2.8574,0,0,1-3.10964-2.77051H8.29955a1.45472,1.45472,0,0,0,1.53674,1.28418c.40813,0,1.22489-.14453,1.22489-.92383,0-.708-.6843-.99512-1.36859-1.25977-1.1286-.44336-2.72546-.9834-2.72546-2.57812,0-1.415,1.23662-2.2793,2.73719-2.2793a2.46258,2.46258,0,0,1,2.71324,2.23145H10.88081a1.12564,1.12564,0,0,0-1.20045-.76758c-.57628,0-1.05675.28809-1.05675.81543,0,.51563.46825.71973,1.285,1.09082.87639.39648,2.74892.86426,2.74892,2.75879C12.65754,33.102,11.373,33.92916,9.8485,33.92916Z" fill="#fff"/><path d="M19.589,26.96138H17.32v6.9082H15.71146v-6.9082H13.442v-1.4873H19.589Z" fill="#fff"/><path d="M25.45194,28.17037a2.68083,2.68083,0,0,1-2.80171,2.79883H20.8735V25.37252h1.77673A2.68058,2.68058,0,0,1,25.45194,28.17037Zm-1.09683-.02344a1.60024,1.60024,0,0,0-1.70488-1.71973H21.962v3.48633h.68821A1.63787,1.63787,0,0,0,24.35511,28.14693Z" fill="#fff"/><line x1="20.86438" y1="33.0871" x2="25.23101" y2="33.0871" fill="none" stroke="#fff" stroke-miterlimit="10" stroke-width="1.00051"/></svg>