<svg id="Layer_1" data-name="Layer 1" xmlns="http://www.w3.org/2000/svg" viewBox="0 0 189 34"><title>logo-palace</title><path d="M83.26244,12.33653c-1.24573-1.03162-2.84183-1.69342-7.14351-1.69342H68.5472V33.806h5.91724v-7.2603h2.31629c3.601,0,5.15812-.6618,6.75422-2.00486a8.3016,8.3016,0,0,0,2.43308-6.073A7.72972,7.72972,0,0,0,83.26244,12.33653Zm-4.3406,8.66175a5.65858,5.65858,0,0,1-2.27736.35036H74.4839V15.84016h1.94646a6.195,6.195,0,0,1,2.43308.35036,2.31387,2.31387,0,0,1,1.47931,2.37468A2.43744,2.43744,0,0,1,78.92184,20.99828Zm19.4646-10.35517H93.28671L84.11888,33.806H90.5422l1.07055-3.34791H99.71L100.8,33.806h6.48172Zm-5.31384,15.124,2.51094-8.07781,2.58879,8.07781Zm22.50108-15.124h-5.91724V33.806h12.76878v-5.197h-6.85154Zm23.78575,0H134.2597L125.09188,33.806h6.42332l1.07055-3.34791h8.11674l1.09,3.34791h6.48171Zm-5.33331,15.124,2.51094-8.07781,2.60826,8.07781h-5.1192Zm26.53027-9.92695a6.01767,6.01767,0,0,1,5.6058,4.02917h6.18974a12.13875,12.13875,0,0,0-23.922,2.764,12.03863,12.03863,0,0,0,12.20431,12.04859,11.84675,11.84675,0,0,0,11.69822-9.10944h-6.18974a6.14928,6.14928,0,0,1-5.56687,3.91239c-3.854,0-6.22867-3.38684-6.22867-6.89047,0-3.28952,2.219-6.75422,6.20921-6.75422m28.20421-5.197H175.66092V33.806H188.7606v-5.197h-7.18244V24.63816h6.96834v-5.197h-6.96833v-3.601h7.18243Z" fill="#ccc"/><path d="M31.253,24.38512l9.36248,9.40141h5.15812L33.91967,21.73793ZM48.45972,14.38031l6.26761,6.28707-5.25544,5.25544,2.62772,2.62772,7.88317-7.88317L48.45972,9.12487,36.91721,20.66738,49.91957,33.78653H55.175L42.17266,20.66738ZM11.71055,9.12487.168,20.66738l7.90263,7.88317,2.62772-2.62772L5.42348,20.66738l6.28707-6.28707,6.28707,6.28707L4.89794,33.78652h5.3333L23.25306,20.66738Z" fill="#ccc"/><path d="M30.18246.19061,18.64,11.73312l7.90263,7.88317,2.62772-2.62772-5.27491-5.25544,6.28707-6.28707,6.28707,6.28707L14.53292,33.78652h5.25544L41.725,11.73312Z" fill="#ccc"/></svg>