<svg id="Layer_1" data-name="Layer 1" xmlns="http://www.w3.org/2000/svg" viewBox="0 0 120 48"><title>logo-header</title><path d="M41.272,25.99391,20.636,12.27928,0,25.99391V0H15.70383V11.42969L20.636,8.15176l4.93233,3.2781V0H41.272ZM29.00023,13.71057,37.84,19.58552V3.44006H29.00023ZM3.43192,3.44006V19.58552l8.84-5.87495V3.44006Z" fill="#fff"/><path d="M41.272,48H25.56831V28.59642L20.636,25.38727l-4.93215,3.20915V48H0V34.71289l20.636-13.427,20.636,13.427ZM29.00023,44.55994H37.84V36.58109l-8.83981-5.75171Zm-25.56831,0h8.84V30.82938l-8.84,5.75171Z" fill="#fff"/><path d="M68.556,15.04332v17.939h-3.4515V25.52483H58.04811v7.45753h-3.4515v-17.939h3.4515v7.22684h7.05636V15.04332Z" fill="#fff"/><path d="M87.55172,32.98236H83.87014l-1.25281-3.92094h-6.6984l-1.25274,3.92094H70.98461l6.03364-17.939H81.518Zm-5.95705-7.09872L79.575,19.65622h-.6136l-2.01977,6.22743Z" fill="#fff"/><path d="M103.32632,25.2942c0,5.50986-3.247,7.81628-7.18418,7.81628S88.9068,30.80406,88.9068,25.2942V15.04332h3.55377V25.038c0,2.92147,1.22719,4.68973,3.68158,4.68973s3.63041-1.76826,3.63041-4.68973V15.04332h3.55377Z" fill="#fff"/><path d="M113.4465,33.32786c-4.3322,0-7.33357-3.1424-7.33357-6.49958h3.68094a3.75394,3.75394,0,0,0,3.62434,3.14066c.96268,0,2.97948-.56074,2.96047-2.26312-.01688-1.51193-1.24117-1.9621-3.30026-2.43723-2.75272-.63518-6.31913-1.524-6.31913-5.29248,0-3.024,2.808-5.26773,6.34743-5.26773,4.10576,0,6.39927,3.02934,6.39927,5.31014h-3.62434a2.992,2.992,0,0,0-2.83152-2.11113c-1.07,0-2.61081.51427-2.67246,1.96-.04694,1.101,1.1345,1.71623,3.28275,2.2234,2.17308.513,6.33958,1.015,6.33958,5.53192C120,30.97992,117.04255,33.32786,113.4465,33.32786Z" fill="#fff"/></svg>