<svg xmlns="http://www.w3.org/2000/svg" viewBox="0 0 69.99976 84.49747"><title>map-marker</title><g id="Layer_2" data-name="Layer 2"><g id="Layer_1-2" data-name="Layer 1"><polygon points="23.25 51.205 29.287 51.205 29.287 41.85 23.25 45.769 23.25 51.205" fill="#f43"/><polygon points="46.749 45.769 40.712 41.85 40.712 51.205 46.749 51.205 46.749 45.769" fill="#f43"/><polygon points="23.25 34.189 29.287 30.187 29.287 23.189 23.25 23.189 23.25 34.189" fill="#f43"/><path d="M59.74841,10.25131v-.00006a34.99954,34.99954,0,0,0-49.49707,0v.00006a34.99969,34.99969,0,0,0,0,49.49738L34.99988,84.49747,59.74841,59.74869A34.99969,34.99969,0,0,0,59.74841,10.25131ZM49.09314,53.549H38.36853V40.32883l-3.36865-2.18646-3.36865,2.18646V53.549H20.90662V44.49612l14.09326-9.14807,14.09326,9.14807Zm0-14.99329L34.99988,29.21158,20.90662,38.55569V20.84543H31.63123v7.78729l3.36865-2.23334,3.36865,2.23346V20.84543H49.09314Z" fill="#f43"/><polygon points="46.749 23.189 40.712 23.189 40.712 30.187 46.749 34.189 46.749 23.189" fill="#f43"/></g></g></svg>