<svg id="Layer_1" data-name="Layer 1" xmlns="http://www.w3.org/2000/svg" viewBox="0 0 34.41467 39.93699"><title>mobile-nav-menu-icon</title><rect y="10.33506" width="34.41467" height="3" fill="#fff"/><rect width="34.41467" height="3" fill="#fff"/><rect y="20.67012" width="34.41467" height="3" fill="#fff"/><path d="M8.82084,39.937H7.17008V34.55632H7.06927L5.41851,39.30694H3.38974L1.75157,34.55632H1.65076V39.937H0V31.11621H2.1548l2.1548,6.25016h.20162L6.666,31.11621h2.1548Z" fill="#fff"/><path d="M16.74641,38.36185V39.937H10.81132V31.11621h5.8091v1.57514H12.462v1.991h3.78034v1.57514H12.462v2.10439Z" fill="#fff"/><path d="M25.425,31.11621V39.937H23.7743l-3.49055-5.69571h-.1638V39.937H18.46919V31.11621h1.6634l3.4905,5.54449h.15121V31.11621Z" fill="#fff"/><path d="M34.41467,36.15666C34.41467,38.8659,32.81431,40,30.87376,40s-3.56613-1.1341-3.56613-3.84334V31.11621H29.0592v4.91444c0,1.43653.60485,2.306,1.81456,2.306s1.78933-.86948,1.78933-2.306V31.11621h1.75157Z" fill="#fff"/></svg>