<svg id="Layer_1" data-name="Layer 1" xmlns="http://www.w3.org/2000/svg" viewBox="0 0 230 233"><title>stamp</title><polygon points="46.124 158.263 46.124 154.339 43.725 150.535 45.147 150.535 46.587 152.999 46.847 152.999 46.982 152.887 48.356 150.535 49.79 150.535 47.391 154.339 47.391 158.263 46.124 158.263" fill="#fff"/><polygon points="51.427 158.263 51.427 150.535 56.403 150.535 56.403 151.641 52.603 151.641 52.603 153.794 56.058 153.794 56.058 154.901 52.603 154.901 52.603 157.157 56.519 157.157 56.519 158.263 51.427 158.263" fill="#fff"/><path d="M63.72374,158.26327l-.56413-1.762H59.89892l-.56435,1.762h-1.3045l2.605-7.72836h1.78813l2.60524,7.72836Zm-3.4721-2.85712h2.5546l-1.0179-3.13133H61.27Z" fill="#fff"/><path d="M70.77542,158.26327l-1.71582-2.95972H67.84135v2.95972h-1.1298V150.5349h2.67821a2.22346,2.22346,0,0,1,2.33235,2.30913,2.39447,2.39447,0,0,1-1.30317,2.17291l-.21495.11057,1.88521,3.13575Zm-2.93407-4.0548h1.433a1.25991,1.25991,0,0,0,1.26071-1.341,1.16556,1.16556,0,0,0-1.26071-1.22644h-1.433Z" fill="#fff"/><path d="M76.31561,158.32076a2.59767,2.59767,0,0,1-2.81068-2.32727h1.18973a1.57761,1.57761,0,0,0,1.60967,1.23219c.61875,0,1.34121-.276,1.34121-1.05306,0-.81689-.787-1.12073-1.41949-1.36487l-.16209-.0628c-1.04488-.40778-2.3454-.91507-2.3454-2.25783,0-1.19017,1.011-2.02165,2.45884-2.02165a2.25178,2.25178,0,0,1,2.42744,1.80936h-1.178a1.2925,1.2925,0,0,0-1.27243-.73728c-.69482,0-1.18.39053-1.18.94957,0,.594.5126.8275,1.28836,1.18088.15435.06944.28284.12163.42238.1778.91109.36709,2.1592.86952,2.1592,2.33832A2.24707,2.24707,0,0,1,76.31561,158.32076Z" fill="#fff"/><path d="M113.34257,101.86842a31.89387,31.89387,0,1,1,63.78775,0v23.82064l-31.89376-20.70259-31.894,20.70259Zm31.894-14.63321A14.64979,14.64979,0,0,1,159.87,101.86842V108.243l.10305.09111,11.94217,7.75225V101.86842a26.67853,26.67853,0,1,0-53.35707,0v14.21791l12.00608-7.79382.0387-.14772v-6.27637A14.65,14.65,0,0,1,145.23656,87.23521Zm9.41809,17.64689v-3.01368a9.44436,9.44436,0,0,0-9.41809-9.41787,9.46232,9.46232,0,0,0-8.817,6.13661,9.3596,9.3596,0,0,0-.60128,3.28126v3.01368l9.41831-6.114Z" fill="#fff"/><path d="M145.23656,159.57108a31.73174,31.73174,0,0,1-28.62511-17.84768c-.46727-.94824-.89031-1.92568-1.25717-2.90621-.27266-.72932-.521-1.48517-.75718-2.30559l30.63946-19.88879L175.8758,136.5116c-.27222.94294-.59066,1.88012-.94736,2.78812-.33414.85006-.693,1.66562-1.06677,2.42413A31.73085,31.73085,0,0,1,145.23656,159.57108ZM120.9168,138.627l.082.1778a26.66377,26.66377,0,0,0,48.4752,0l.082-.1778-10.31679-6.69653-.09133.28a14.63042,14.63042,0,0,1-27.82282,0l-.09133-.28Zm14.99035-9.73011.021.14374a9.40591,9.40591,0,0,0,18.61658,0l.021-.14374-9.32919-6.05523Z" fill="#fff"/><path d="M84.74455,159.01956V142.25944H43.41921V128.5966L75.23756,71.23979H89.88337v82.64051h11.49237V71.23979h5.13838v87.77977Zm-36.187-29.12267v7.22372h36.187V126.91727H63.74608L84.56963,89.32188l.178-12.94326H78.30122ZM72.652,121.77844H84.74455V100.70478l-.42481-.10924Z" fill="#fff"/><path d="M7.99593,150.895a6.80589,6.80589,0,1,1,5.10533,12.60791A6.80591,6.80591,0,1,1,7.99593,150.895Zm4.0752,10.0639c2.39614-.97022,3.49087-3.1943,2.58771-5.42443-.89574-2.212-3.22921-3.04753-5.62562-2.07731-2.39614.97022-3.49087,3.1943-2.58771,5.42443C7.34866,161.11223,9.675,161.92908,12.07112,160.95886Z" fill="#fff"/><path d="M25.71466,171.81872,11.589,175.09933l-1.98716-3.53787L19.754,161.20568l1.39266,2.47969-7.94343,7.952.20449.36445,10.9239-2.6457Z" fill="#fff"/><path d="M23.07748,187.616l-2.00558,1.46825-5.53437-7.55672,11.23118-8.2246,5.41674,7.39621-2.00558,1.4688-3.87758-5.2947-2.53494,1.85633,3.52495,4.81372-2.00558,1.46825-3.52495-4.81317-2.67923,1.96243Z" fill="#fff"/><path d="M28.45217,197.42537l1.7442-5.64486-1.11974-1.21264-3.755,3.46805-1.71341-1.85579L33.8351,182.7352l3.33283,3.60823a4.1205,4.1205,0,0,1-.213,6.07143,4.42486,4.42486,0,0,1-4.68069.912l-1.825,6.26108Zm2.436-8.53024,1.48419,1.60677a1.88786,1.88786,0,0,0,2.77213.01154,1.73861,1.73861,0,0,0,.06239-2.62921l-1.48446-1.60732Z" fill="#fff"/><path d="M46.07415,209.45l-1.623-1.2819-1.60237,2.02894-2.013-1.58973,1.6021-2.02894L38.037,203.10267l.99825-1.26431,8.93619-3.83855,1.99761,1.57764.7803.61621-4.83131,6.1176,1.623,1.2819ZM43.90477,204.721l2.76087-3.49554-.15611-.12313-4.618,2.02894Z" fill="#fff"/><path d="M50.00368,207.57282c2.17983-3.44607,4.86786-4.56965,7.52374-2.88977,2.6556,1.67988,2.79165,4.59.6011,8.0531-2.17983,3.44552-4.85082,4.5801-7.50669,2.90021C47.94945,213.94549,47.82412,211.01834,50.00368,207.57282Zm5.74436,3.68079c.90371-1.42867,1.81071-3.42078.365-4.33493-1.42867-.90371-2.83975.76848-3.733,2.18066-.90371,1.42867-1.78955,3.3867-.3606,4.2904C53.48163,214.31489,54.87594,212.63171,55.748,211.25361Z" fill="#fff"/><path d="M77.3482,213.498,70.56,218.10726l-2.79467,6.39685-2.53356-1.10654,2.79467-6.3974-1.23105-8.11246,2.87988,1.25826.57444,4.89562.21851.0951,3.9823-2.90461Z" fill="#fff"/><path d="M84.23291,227.59562l-.73,2.3758-8.95268-2.7507,4.08839-13.30547,8.76248,2.69243-.73,2.3758-6.27262-1.92725-.92267,3.00356,5.70231,1.75189-.73028,2.3758-5.70231-1.75189-.97517,3.174Z" fill="#fff"/><path d="M98.72271,233.019l-2.81748-.51562-.41063-3.169-5.12622-.93834-1.50673,2.81776-2.81748-.51562,7.12465-12.85087,3.44359.63051ZM95.156,226.765l-.67531-5.03745-.46944-.0863-2.4162,4.4718Z" fill="#fff"/><path d="M109.04057,233.722l-2.65862-5.27766-1.648-.09675-.30041,5.10341-2.52175-.14842.8174-13.9008,4.905.28859a4.12177,4.12177,0,0,1,4.05816,4.52293,4.42669,4.42669,0,0,1-2.74053,3.904l3.02774,5.77734Zm-4.162-7.83706,2.18451.12863a1.88845,1.88845,0,0,0,2.00558-1.9146,1.73869,1.73869,0,0,0-1.7791-1.93769l-2.18423-.12863Z" fill="#fff"/><path d="M119.78747,233.744c-3.03956.14567-5.24056-1.7398-5.36562-4.34208l2.58276-.12423a2.40957,2.40957,0,0,0,2.64488,2.00365c.67531-.03243,2.01492-.33587,1.95281-1.62711-.05607-1.172-1.21126-1.59413-2.36481-1.97727-1.90278-.64535-4.58779-1.41273-4.7145-4.05458-.11269-2.34447,1.86486-3.87318,4.3484-3.99192,2.88042-.13852,4.58229,1.71121,4.66695,3.4796l-2.54291.122a1.8651,1.8651,0,0,0-2.04763-1.17636c-.95345.04563-1.72523.56069-1.68345,1.43472.04123.85423.832,1.15492,2.21254,1.70627,1.48171.586,4.618,1.21209,4.76864,4.35087C124.37059,232.14988,122.31059,233.62308,119.78747,233.744Z" fill="#fff"/><path d="M141.91919,227.96227l.50352,2.43462-9.175,1.89756L130.428,218.65861l8.98016-1.85688.50352,2.43462-6.42818,1.32917.63628,3.07832,5.84413-1.20879.50352,2.43517-5.84413,1.20824.67283,3.25312Z" fill="#fff"/><path d="M150.19849,222.36138l-.26386.08905-1.36545,6.19511-3.07035,1.04058,1.91543-8.22955-6.119-5.04514,2.995-1.01475,4.51523,3.783.26358-.0896,1.2863-5.74821,2.93842-.99551-1.79229,7.72548,6.523,5.37-2.99476,1.01475Z" fill="#fff"/><path d="M165.78961,211.05022a4.28833,4.28833,0,0,1-1.9267,5.91147l-2.50471,1.217,2.25981,4.65156-2.27191,1.1038-6.08462-12.5238,4.77689-2.32083A4.11018,4.11018,0,0,1,165.78961,211.05022Zm-2.36178,1.14722a1.72864,1.72864,0,0,0-2.49921-.82015l-2.32578,1.12963,1.6862,3.4708,2.32578-1.12963A1.88786,1.88786,0,0,0,163.42783,212.19744Z" fill="#fff"/><path d="M179.3988,211.04582l1.32587,2.10315-7.925,4.99622-7.42506-11.77786,7.75681-4.89013,1.32587,2.10315-5.55251,3.50049,1.67576,2.65835,5.04789-3.18221,1.32587,2.10315-5.04761,3.18221,1.77141,2.81006Z" fill="#fff"/><path d="M189.54872,206.37338l-5.50991-2.13228-1.2874,1.03343,3.19843,3.98642L183.98,210.84133l-8.71191-10.85821,3.8314-3.07392a4.1202,4.1202,0,0,1,6.04175.63435,4.4251,4.4251,0,0,1,.58433,4.73236l6.1187,2.25542Zm-8.34059-3.0228,1.70627-1.36875a1.88787,1.88787,0,0,0,.20421-2.76444,1.73834,1.73834,0,0,0-2.61849-.24462l-1.70654,1.36875Z" fill="#fff"/><path d="M195.812,200.73566l-2.0141,1.89481-9.54141-10.1425,2.0141-1.89481Z" fill="#fff"/><path d="M203.1219,189.3316l1.84974,1.65954-6.2542,6.97019-10.35936-9.29487,6.12145-6.82232,1.85,1.66009-4.38193,4.88353,2.33815,2.0982,3.98367-4.43992,1.84974,1.66009-3.98367,4.43937,2.47145,2.21749Z" fill="#fff"/><path d="M202.46061,170.83366,213.86,178.82409l-1.49518,2.13338-10.52262-.64865-.14842.21163,7.36075,5.15948-1.49546,2.13338-11.39939-7.99043,1.50673-2.14932,10.3272.51177.13715-.19569-7.16533-5.0226Z" fill="#fff"/><path d="M217.701,163.10819a5.8058,5.8058,0,0,1,1.12826,7.0444c-1.69445,3.22179-5.56708,4.175-9.17641,2.27685-3.6096-1.89811-5.02865-5.61133-3.3342-8.83312a5.845,5.845,0,0,1,6.4521-3.08052l-1.39789,2.6589a2.75,2.75,0,0,0-2.71167,1.60842c-1.05542,2.0075-.01979,4.01281,2.26916,5.21665,2.28895,1.20329,4.53777.90261,5.60254-1.12249a2.69659,2.69659,0,0,0-.23-3.1102Z" fill="#fff"/><path d="M223.8747,151.8399l2.3266.87512-3.2971,8.76661-13.0287-4.9,3.227-8.58026,2.3266.87457-2.31011,6.14234,2.94062,1.106,2.10013-5.58385,2.3266.87512-2.10013,5.58385,3.10828,1.16866Z" fill="#fff"/><path d="M2.11524,87.30024l13.654,2.71167-.523,2.63306L9.57,91.51754,8.50083,96.90129l5.6762,1.12743-.52276,2.63306L0,97.95012l.523-2.63306,5.50057,1.09225,1.06917-5.38376L1.5922,89.9333Z" fill="#fff"/><path d="M20.21987,76.38981l-.9202,2.71222-3.19513-.05442-1.67438,4.93465,2.569,1.90086-.9202,2.71222L4.402,79.677l1.12468-3.31524Zm-6.70661,2.61877-5.082-.06486-.15337.45185,4.07245,3.04094Z" fill="#fff"/><path d="M20.25945,62.72758c3.83938,1.88382,4.33383,4.94015,2.98459,7.69029-1.34924,2.7496-4.08647,4.26457-7.92557,2.3813L8.17568,69.29484,9.39354,66.8124l6.96414,3.41693c2.03554.9988,3.68821.74594,4.52925-.968.841-1.71451.01182-3.14043-2.02372-4.13924l-6.96414-3.41638,1.21786-2.48189Z" fill="#fff"/><path d="M29.39765,59.59869c-1.65707,2.55225-4.47318,3.23718-6.65823,1.81841l1.40806-2.16856a2.40872,2.40872,0,0,0,3.17094-.97627c.3683-.56674.90453-1.831-.17948-2.53521-.98424-.63875-2.00173.05167-2.98624.76463-1.63508,1.167-3.82618,2.898-6.04477,1.45725-1.9682-1.27805-2.05368-3.77589-.69977-5.86035,1.57049-2.41868,4.06585-2.71936,5.55031-1.75519l-1.38634,2.135a1.865,1.865,0,0,0-2.1507.97462c-.51974.80036-.55272,1.72771.18113,2.20429.71736.4656,1.42317-.00055,2.67676-.79926,1.34127-.86028,3.68134-3.03984,6.31687-1.32862C30.78124,54.94823,30.77327,57.4807,29.39765,59.59869Z" fill="#fff"/><path d="M36.21475,35.73239a4.28816,4.28816,0,0,1,.3628,6.20666l-1.88767,2.04653,3.80062,3.506L36.77791,49.3479,26.545,39.909l3.60053-3.90342A4.10977,4.10977,0,0,1,36.21475,35.73239Zm-1.7802,1.93a1.72847,1.72847,0,0,0-2.62591.14787l-1.753,1.90031,2.8359,2.61657,1.75327-1.90086A1.88777,1.88777,0,0,0,34.43454,37.66239Z" fill="#fff"/><path d="M50.06937,36.32827,44.488,34.38783l-1.25112,1.07741,3.3353,3.87373-1.91433,1.648L35.57325,30.43549l3.72311-3.2053a4.12074,4.12074,0,0,1,6.06126.42437,4.42658,4.42658,0,0,1,.74842,4.71037l6.19429,2.04213Zm-8.44173-2.73256,1.65817-1.42757a1.88846,1.88846,0,0,0,.10829-2.77048,1.73942,1.73942,0,0,0-2.62619-.15392l-1.65817,1.42757Z" fill="#fff"/><path d="M49.15742,27.947a6.80663,6.80663,0,1,1,11.34442-7.50779A6.80663,6.80663,0,1,1,49.15742,27.947Zm9.05575-5.99337c-1.427-2.15592-3.82453-2.787-5.83121-1.4589-1.99046,1.31708-2.34612,3.77039-.9191,5.92686,1.427,2.15592,3.82426,2.78753,5.83121,1.4589C59.301,26.55241,59.64019,24.1101,58.21317,21.95363Z" fill="#fff"/><path d="M70.78094,12.40645a4.28751,4.28751,0,0,1-1.92862,5.90982L66.34762,19.5322l2.25762,4.65156-2.27191,1.1027-6.07858-12.5238,4.77689-2.31808A4.10872,4.10872,0,0,1,70.78094,12.40645Zm-2.36151,1.14612a1.72857,1.72857,0,0,0-2.49866-.8207L63.595,13.8604l1.68455,3.47135,2.32578-1.12908A1.8881,1.8881,0,0,0,68.41943,13.55257Z" fill="#fff"/><path d="M84.7576,14.93562,85.58,17.28173l-8.83917,3.09866L72.13513,7.24367l8.65172-3.03324.82235,2.34612L75.416,8.72731l1.03976,2.96563,5.63-1.974.82235,2.34612-5.63,1.97342,1.09857,3.13439Z" fill="#fff"/><path d="M95.0018,15.03456l-3.99741-4.35087-1.61172.35675,1.10352,4.99072-2.46623.5453L85.02366,2.9824l4.797-1.06037a4.12035,4.12035,0,0,1,5.13722,3.24323,4.4261,4.4261,0,0,1-1.57077,4.50259l4.48885,4.73126ZM88.86,8.63221,90.99614,8.16a1.88842,1.88842,0,0,0,1.407-2.389,1.73863,1.73863,0,0,0-2.24-1.37865l-2.13613.47219Z" fill="#fff"/><path d="M107.28291,1.8044,103.5477,2.22l1.26651,11.38372-2.64845.29464L100.89925,2.51461,97.164,2.93018,96.89139.47962,107.01026-.64616Z" fill="#fff"/><path d="M121.38764-.70553l-4.4883,6.86794-.11461,6.979-2.76389-.04563.11461-6.979L109.875-.89463l3.14153.05167,2.41565,4.2959.23857.00385L118.226-.7572Z" fill="#fff"/><path d="M141.85405,16.45334l-2.55528-.50957,1.66147-8.329-.15611-.03133L136.782,14.42769l-3.14043-.62666-1.06889-7.8596-.15611-.03078-1.66119,8.329-2.55528-.51012,2.72349-13.654,3.33558.66569,1.40558,10.33985.312.06267,5.26557-9.00957,3.3353.66514Z" fill="#fff"/><path d="M155.22824,21.15107l-2.69875-.95978.10142-3.19375-4.91019-1.74639-1.938,2.54071-2.69875-.95978,9.08846-11.54589,3.29847,1.17306Zm-2.52037-6.74426.13907-5.08032L152.397,9.166l-3.1,4.02765Z" fill="#fff"/><path d="M172.68037,14.4112l-6.349,12.39132-2.31918-1.18845-.80366-10.51355-.23-.11764-4.09966,8.00142-2.31918-1.18845,6.349-12.39132,2.33677,1.19725.91278,10.30137.21218.10884,3.99082-7.78924Z" fill="#fff"/><path d="M178.1977,34.81439l-2.35629-1.62766.92762-3.05743-4.28683-2.96123-2.53109,1.94978-2.35629-1.62766,11.77374-8.7864,2.87988,1.98936Zm-.68163-7.16588,1.45423-4.86869-.39276-.27155-4.03919,3.08326Z" fill="#fff"/><path d="M192.79057,37.69647l-5.07895,5.64981L186.336,42.11l.56262-1.07246-.19212-.17261a4.50121,4.50121,0,0,1-3.46888-1.40668c-2.76581-2.48629-2.81254-6.53977-.07366-9.58676,2.71249-3.0173,6.70358-3.44057,9.60242-.83444a5.885,5.885,0,0,1,1.51909,6.84761l-2.21859-1.99431a2.8185,2.8185,0,0,0-.98918-2.975c-1.71561-1.54246-4.162-1.20109-5.93016.76628-1.76838,1.96682-1.84974,4.40749-.01594,6.056a3.2465,3.2465,0,0,0,3.35619.87787l.81108-.90206-2.21859-1.99486,1.56912-1.74475Z" fill="#fff"/><path d="M197.48281,50.80955l-1.88849,1.61667-6.09259-7.11586,10.57594-9.05465,5.96286,6.96469L204.152,44.83761l-4.26842-4.98577-2.38707,2.04378,3.88033,4.53227-1.88849,1.61722-3.8806-4.53282-2.52285,2.16032Z" fill="#fff"/><path d="M204.66106,65.929l-1.4097-2.19055,7.1406-4.59549-.086-.13413-7.71448,1.86678-1.73265-2.69243,4.90552-6.23139-.086-.13358-7.14087,4.59549-1.4097-2.19055,11.70612-7.53363,1.84012,2.85954-6.4543,8.19767.17233.2677,10.13481-2.47859,1.84039,2.85954Z" fill="#fff"/><path d="M212.04215,75.938l-2.259,1.03783-3.91194-8.51155,12.65-5.81362,3.82893,8.33069-2.259,1.03838-2.7408-5.96369-2.85514,1.31213,2.49151,5.42169L214.728,73.82766l-2.49179-5.42114-3.01785,1.38689Z" fill="#fff"/><path d="M227.30785,85.56759l-13.27524,4.19036-.78415-2.48409,6.91357-7.95965-.07778-.24627-8.572,2.70562-.78415-2.48409,13.27524-4.19036.79019,2.50333-6.68627,7.88709.072.22758,8.34444-2.63416Z" fill="#fff"/><path d="M227.5761,99.43651l-.68822-3.69453-11.26,2.09765-.48813-2.61932,11.26-2.09765-.68822-3.69508,2.4239-.4513L230,98.9852Z" fill="#fff"/><circle cx="222.65741" cy="125.34519" r="3.27923" fill="#fff"/><circle cx="3.68586" cy="125.34519" r="3.27923" fill="#fff"/></svg>