<svg id="Layer_1" data-name="Layer 1" xmlns="http://www.w3.org/2000/svg" viewBox="0 0 230 233"><title>stamp</title><polygon points="45.924 152.011 45.855 152.011 44.45 149.606 44.433 149.576 42.494 149.576 45.045 153.624 45.045 157.66 46.745 157.66 46.745 153.624 49.296 149.576 47.346 149.576 45.924 152.011" fill="#fff"/><polygon points="55.763 156.119 51.894 156.119 51.894 154.337 55.308 154.337 55.308 152.797 51.894 152.797 51.894 151.117 55.649 151.117 55.649 149.576 50.285 149.576 50.285 157.66 55.763 157.66 55.763 156.119" fill="#fff"/><path d="M61.534,149.57647H59.446l-2.725,8.08342h1.76386l.5574-1.74094h2.89532l.544,1.69974.01343.0412h1.76386l-2.71152-8.04314Zm-.95045,2.16663.86017,2.64648H59.53584l.86063-2.64648Z" fill="#fff"/><path d="M70.78457,152.082a2.4115,2.4115,0,0,0-2.52819-2.50551H65.38652v8.08342h1.56386v-2.92425h.85091l1.69534,2.92425h1.82265l-1.94348-3.23235A2.57917,2.57917,0,0,0,70.78457,152.082Zm-3.83419-.9648h1.19211a.93262.93262,0,0,1,1.02174.98771,1.01772,1.01772,0,0,1-1.02174,1.10137H66.95038Z" fill="#fff"/><path d="M77.82151,155.38192c0-1.60205-1.36849-2.15343-2.27357-2.51778-.13472-.05417-.25879-.1044-.36712-.15324l-.04074-.01852c-.73656-.33564-1.14211-.52059-1.14211-.96295,0-.49351.47314-.71457.94211-.71457a1.00558,1.00558,0,0,1,1.07961.67939l.0088.04884h1.56525v-.05926a2.40056,2.40056,0,0,0-2.631-2.17565c-1.562,0-2.65319.91341-2.65319,2.22126,0,1.47937,1.42173,2.03376,2.46014,2.43884l.16065.06273c.71341.27546,1.25924.53448,1.25924,1.13956,0,.77753-.91758.81688-1.10137.81688a1.34106,1.34106,0,0,1-1.39766-1.16641l-.00694-.05116H72.09337v.05926a2.76587,2.76587,0,0,0,3.006,2.68768C76.4544,157.71683,77.82151,156.99485,77.82151,155.38192Z" fill="#fff"/><path d="M174.52645,121.08566v-19.369a31.73583,31.73583,0,1,0-63.47165,0V125.664l5.60048-3.63532,11.45319-7.43447,5.60048-3.635,9.08182-5.89521,9.08153,5.89493,5.60048,3.63532,11.45347,7.43447,5.6002,3.63532Zm-22.65415-16.831v.02731l-9.08153-5.89521L133.709,104.282v-2.56533a9.0817,9.0817,0,0,1,18.16335,0Zm17.054,11.09737-11.45347-7.43475v-6.20064a14.68216,14.68216,0,0,0-29.36431,0v6.20092l-.03828.02477-11.4149,7.40969V101.71664a26.13549,26.13549,0,1,1,52.271,0Z" fill="#fff"/><path d="M171.274,141.19363q.5806-1.17893,1.06126-2.41219.56371-1.43482.98863-2.93381l-4.964-3.22235-10.88709-7.06683-5.60048-3.63532-9.08153-5.89521-9.08182,5.89521-5.60048,3.63532-10.88681,7.06683-4.964,3.22207c.23534.83184.49882,1.65157.7989,2.45413q.55484,1.48253,1.251,2.89187a31.7215,31.7215,0,0,0,56.96642.00028Zm-28.48321-18.48849,8.97541,5.826a9.06964,9.06964,0,0,1-17.9511,0Zm0,30.64655a26.16563,26.16563,0,0,1-23.74441-15.23432l9.787-6.35237a14.679,14.679,0,0,0,27.91486-.00028l9.7867,6.35265A26.16522,26.16522,0,0,1,142.79077,153.3517Z" fill="#fff"/><path d="M105.16005,71.23082H99.63586v81.65133H88.7285V71.23082h-14.826L42.373,128.06691v13.78065H83.20375v16.55963h21.95631ZM83.20375,121.16448H71.85827L83.20375,100.567Zm-.172-31.90358L62.30061,126.68924H83.20375v9.63356H47.89746v-6.85542l29.29526-52.7118h6.011Z" fill="#fff"/><circle cx="219.0752" cy="127.58941" r="3.1815" transform="translate(89.2145 345.32594) rotate(-89.40416)" fill="#fff"/><circle cx="6.81897" cy="125.38201" r="3.1815" transform="translate(-118.62717 130.89674) rotate(-89.40416)" fill="#fff"/><path d="M2.17828,87.46989,15.81343,90.262l-.5385,2.63039L9.60664,91.73087l-1.10129,5.376,5.66828,1.16149-.53849,2.62929L0,98.10443l.53849-2.62929,5.49277,1.12559,1.10129-5.376L1.63979,90.09918Z" fill="#fff"/><path d="M20.4849,76.34133l-.946,2.702-3.19243-.08486-1.72089,4.91662,2.54948,1.92381-.946,2.702L4.64349,79.47542l1.15612-3.30221Zm-6.72812,2.55393-5.07843-.11437-.158.45125,4.04125,3.07815Z" fill="#fff"/><path d="M20.8397,62.3604c3.813,1.93256,4.2681,4.99429,2.88378,7.72472-1.38378,2.73153-4.139,4.20994-7.95256,2.27848l-7.094-3.59466L9.9266,66.30313,16.84288,69.808c2.02185,1.02464,3.677.79342,4.54-.90913.86248-1.70256.05242-3.1378-1.96943-4.16244l-6.91684-3.50488,1.24911-2.46581Z" fill="#fff"/><path d="M30.0173,59.34937c-1.69,2.53048-4.51413,3.17824-6.68055,1.73219L24.77219,58.931a2.40915,2.40915,0,0,0,3.18324-.93423c.37574-.5622.928-1.8195-.14674-2.53749-.97594-.65211-2.002.02535-2.99529.72513-1.65034,1.14584-3.86325,2.84864-6.06295,1.37916-1.95135-1.30311-2.004-3.80115-.6238-5.86877,1.60125-2.39729,4.10043-2.6659,5.572-1.68326L22.285,52.12825a1.8662,1.8662,0,0,0-2.16272.947c-.5304.79364-.57522,1.72093.15238,2.20667.71122.47458,1.42334.0181,2.68682-.76461,1.352-.84225,3.71964-2.99194,6.33253-1.24664C31.46041,54.71787,31.41979,57.249,30.0173,59.34937Z" fill="#fff"/><path d="M37.14415,35.57753a4.287,4.287,0,0,1,.28113,6.21037L35.5108,43.80929l3.75433,3.55553L37.52848,49.199l-10.108-9.57293,3.65167-3.85556A4.108,4.108,0,0,1,37.14415,35.57753Zm-1.805,1.906a1.72869,1.72869,0,0,0-2.62783.11337l-1.77777,1.87771,2.80132,2.653L35.51264,40.25A1.88742,1.88742,0,0,0,35.33915,37.48354Z" fill="#fff"/><path d="M50.986,36.35575l-5.5539-2.01222L44.1674,35.40324l3.28284,3.91668-1.93506,1.62215L36.57272,30.27542l3.76366-3.15527a4.11984,4.11984,0,0,1,6.05381.50376,4.42559,4.42559,0,0,1,.68578,4.7185l6.165,2.123Zm-8.40276-2.8421,1.67612-1.405a1.88813,1.88813,0,0,0,.14476-2.7686,1.73843,1.73843,0,0,0-2.623-.18777l-1.67612,1.405Z" fill="#fff"/><path d="M50.1862,27.96348A6.8056,6.8056,0,1,1,61.62943,20.6109,6.8056,6.8056,0,1,1,50.1862,27.96348ZM59.32042,22.094c-1.39761-2.17455-3.78542-2.838-5.81-1.53671-2.00744,1.28943-2.39621,3.7378-.99859,5.91236s3.78542,2.838,5.81,1.53781C60.34587,26.70607,60.718,24.26961,59.32042,22.094Z" fill="#fff"/><path d="M72.005,12.7064a4.28717,4.28717,0,0,1-2.00521,5.8843l-2.52025,1.18406,2.19764,4.68036L67.3911,25.5284,61.47465,12.92666l4.80629-2.25624A4.10933,4.10933,0,0,1,72.005,12.7064Zm-2.37664,1.1163a1.72818,1.72818,0,0,0-2.48751-.8536l-2.34018,1.09909L66.44013,17.56l2.34017-1.098A1.88788,1.88788,0,0,0,69.62834,13.8227Z" fill="#fff"/><path d="M85.94763,15.42034l.79169,2.35622-8.87719,2.98117L73.43031,7.56465l8.68912-2.91827.79114,2.35622L76.69074,9.09134l1.00013,2.97727,5.65449-1.899.79114,2.35622-5.65394,1.899,1.05716,3.14824Z" fill="#fff"/><path d="M96.1715,15.65308l-3.9412-4.4006-1.61554.33606,1.04007,5.00359-2.47206.514L86.34882,3.479l4.80861-.99977A4.11894,4.11894,0,0,1,96.25213,5.786a4.42421,4.42421,0,0,1-1.62677,4.4812l4.42746,4.786ZM90.11277,9.17486l2.141-.44491a1.88774,1.88774,0,0,0,1.43663-2.37042,1.73892,1.73892,0,0,0-2.22178-1.40706l-2.14157.446Z" fill="#fff"/><path d="M108.64865,2.58418l-3.74015.36673,1.11811,11.39872-2.65189.26042L102.25661,3.21133l-3.74015.36673-.241-2.45383,10.1322-.99387Z" fill="#fff"/><path d="M122.373.23931l-4.5586,6.81959-.18742,6.97607-2.76274-.0738.18742-6.97607L110.86484-.06834l3.14023.08322,2.37066,4.32051.23848.00578L119.2124.15478Z" fill="#fff"/><path d="M142.66548,17.58541l-2.54909-.53436,1.74024-8.30979-.15576-.0324-4.08574,6.80252-3.13318-.65586-.99325-7.86665-.15576-.0324-1.74024,8.30979-2.54964-.53437L131.896,1.11l3.32787.69636,1.306,10.3498.31151.0648,5.34918-8.9549,3.32787.69636Z" fill="#fff"/><path d="M155.98217,22.40778l-2.68785-.9854.13212-3.19084-4.89115-1.79207-1.96143,2.52-2.68786-.9843,9.19394-11.45307,3.28577,1.20377Zm-2.45407-6.765.18745-5.07657-.44789-.164-3.137,3.99611Z" fill="#fff"/><path d="M173.48957,15.83059l-6.46428,12.329-2.30738-1.21008-.7046-10.51832-.22849-.12-4.17418,7.9602-2.30739-1.209,6.46428-12.329,2.32487,1.21906.81508,10.30732.21155.111,4.06316-7.7492Z" fill="#fff"/><path d="M178.81214,36.28136l-2.33964-1.649.95615-3.04706-4.2575-3.00125-2.54828,1.92466-2.34019-1.649,11.85212-8.67181,2.86016,2.01608Zm-.61356-7.17017,1.49983-4.853-.39013-.27447-4.067,3.04329Z" fill="#fff"/><path d="M193.37767,39.29748,188.248,44.89976l-1.36382-1.24864.57226-1.06691-.1911-.17457a4.49675,4.49675,0,0,1-3.45481-1.43857c-2.74289-2.51062-2.75241-6.56365.01394-9.58529,2.73965-2.99114,6.73394-3.37831,9.60858-.74649a5.88524,5.88524,0,0,1,1.456,6.86125l-2.19953-2.01471a2.81782,2.81782,0,0,0-.96214-2.98347c-1.70082-1.55773-4.15-1.23914-5.93618.711s-1.8902,4.39052-.07121,6.055a3.24485,3.24485,0,0,0,3.34765.90872l.8189-.89506-2.20009-2.01362,1.585-1.73132Z" fill="#fff"/><path d="M197.944,52.45348l-1.90294,1.5994-6.02516-7.16929,10.65524-8.95468,5.89758,7.01737-1.90293,1.5983-4.22164-5.02239-2.40473,2.02069,3.8378,4.56661-1.90294,1.5994-3.8378-4.56661-2.54223,2.13578Z" fill="#fff"/><path d="M204.97731,67.64017l-1.38852-2.203,7.18285-4.52785-.08489-.135-7.731,1.79382-1.707-2.70871,4.96365-6.18331-.08489-.135-7.18285,4.52785-1.38906-2.20415L209.331,48.44313l1.813,2.8758-6.53059,8.13576.16977.27,10.15709-2.38306,1.813,2.8769Z" fill="#fff"/><path d="M212.26533,77.7334l-2.26841,1.0152-3.82609-8.54576,12.701-5.68733,3.74553,8.36465-2.26841,1.0152-2.68091-5.9869-2.867,1.28378,2.43759,5.44244-2.26842,1.0163-2.437-5.44353-3.03044,1.35683Z" fill="#fff"/><path d="M227.43416,87.47988l-13.30968,4.0695-.7617-2.49112,6.98372-7.89471-.07548-.247-8.59431,2.628-.7617-2.49112,13.30968-4.0695.76755,2.50987-6.75545,7.82454.06963.22827,8.366-2.55778Z" fill="#fff"/><path d="M227.57171,101.36479l-.65294-3.70026-11.27918,1.99-.463-2.62432,11.27918-1.99-.65293-3.70136,2.42829-.42764L230,100.93716Z" fill="#fff"/><path d="M218.3441,153.52252a6.80632,6.80632,0,1,1-9.18454,3.46714A6.89551,6.89551,0,0,1,218.3441,153.52252Zm-4.30061,9.97051c2.37417,1.02391,4.72646.24042,5.6794-1.969.94505-2.19086-.09948-4.43979-2.47365-5.4637s-4.72591-.24042-5.67885,1.96905C210.61689,160.23991,211.66987,162.46914,214.04349,163.493Z" fill="#fff"/><path d="M212.41607,180.66723,202.47259,170.121l2.05458-3.49622,14.05265,3.55271-1.44023,2.45173-10.86492-2.85671-.2115.35945,7.783,8.10214Z" fill="#fff"/><path d="M195.86364,183.73017l-1.98-1.50348,5.66341-7.461,11.08795,8.41792-5.543,7.30181-1.98-1.50348,3.96822-5.22632-2.503-1.90025-3.60713,4.7519-1.98-1.50348,3.60713-4.7519-2.64535-2.00725Z" fill="#fff"/><path d="M187.61081,188.98449l5.74183,1.38211,1.1386-1.194-3.698-3.52637,1.74261-1.82641,10.07147,9.60223-3.38856,3.5538a4.11919,4.11919,0,0,1-6.07019.17321,4.42474,4.42474,0,0,1-1.20683-4.6118l-6.36137-1.42373Zm8.66441,1.88847-1.50924,1.58261a1.88722,1.88722,0,0,0,.1647,2.76632,1.7378,1.7378,0,0,0,2.62664-.10459l1.50924-1.58261Z" fill="#fff"/><path d="M174.33045,203.50043l1.64921-1.24808-1.55928-2.06082,2.0453-1.54735L178.025,200.705l4.47228-3.382.97157,1.28413,1.46315,9.61384-2.02979,1.53542-.79275.59964-4.70223-6.21677L175.758,205.3873Zm5.122-.90857,2.687,3.55213.159-.11926-.80012-4.98021Z" fill="#fff"/><path d="M175.301,207.41945c2.10946,3.48786,1.91489,6.39445-.77374,8.02085-2.68808,1.62641-5.3525.44889-7.47277-3.05667-2.11-3.489-1.93258-6.38474.75605-8.01114C170.51632,202.73636,173.191,203.93048,175.301,207.41945Zm-5.85742,3.49625c.8748,1.44581,2.25151,3.14637,3.715,2.26131,1.44637-.87535.58016-2.88389-.28437-4.3131-.87479-1.44691-2.23152-3.11319-3.67789-2.23784C167.71624,207.52084,168.59959,209.51967,169.44358,210.91569Z" fill="#fff"/><path d="M153.40752,226.74186l1.43222-8.07666-2.63363-6.46348,2.55945-1.04295,2.63363,6.46348,6.66948,4.77524-2.90939,1.18551-3.90738-3.002-.22079.09-.696,4.87781Z" fill="#fff"/><path d="M138.82292,219.05925l-.67369-2.39237,9.01385-2.539,3.77455,13.3962-8.82312,2.486-.67369-2.39237,6.31553-1.77886-.8518-3.02409-5.7417,1.61774-.67369-2.39237,5.74115-1.61774-.9-3.19608Z" fill="#fff"/><path d="M124.785,218.94953l2.827-.45317,1.4428,2.85,5.14316-.82481.48078-3.15753,2.827-.45207-2.43155,14.48257-3.45465.55437Zm5.4451,4.70534,2.31526,4.5211.47126-.07534.78649-5.01868Z" fill="#fff"/><path d="M116.56237,219.24216l3.16175,4.99048,1.64955-.06529-.20081-5.107,2.5238-.09907.54677,13.91006-4.90849.193a4.11969,4.11969,0,0,1-4.48018-4.10281,4.42487,4.42487,0,0,1,2.34445-4.15166l-3.57741-5.45209Zm4.90823,7.38961-2.1862.08609a1.88735,1.88735,0,0,0-1.80812,2.10054,1.73962,1.73962,0,0,0,1.95984,1.755l2.18565-.0861Z" fill="#fff"/><path d="M107.55225,218.88574c3.03566.20305,5.00706,2.32641,4.83327,4.92652l-2.57924-.17192a2.40914,2.40914,0,0,0-2.3978-2.29268c-.675-.04549-2.04017.103-2.12614,1.39262-.07758,1.171,1.02143,1.72215,2.123,2.23376,1.81637.85871,4.39563,1.92762,4.21979,4.56619-.15627,2.342-2.2951,3.63442-4.77493,3.469-2.87747-.19261-4.35627-2.224-4.23843-3.98927l2.5397.16931a1.86518,1.86518,0,0,0,1.89976,1.40151c.95238.06377,1.77737-.35966,1.83592-1.23295.05668-.85243-.69445-1.24168-2.00292-1.94671-1.40472-.7511-4.44823-1.73141-4.2392-4.86648C102.81832,219.94565,105.03233,218.71773,107.55225,218.88574Z" fill="#fff"/><path d="M86.33108,217.95493l.55941-2.42132,9.1238,2.1087L92.87949,231.2019l-8.9297-2.06382.55941-2.42132,6.39269,1.47791.70732-3.06064-5.81093-1.34435.55941-2.42132,5.81148,1.34436.7476-3.235Z" fill="#fff"/><path d="M77.64506,218.14491l.26173.09506,4.93365-3.98622,3.04718,1.10346-6.6323,5.23159,1.62973,7.76-2.97215-1.07739-1.16563-5.77217-.26173-.09506L71.893,225.09059l-2.91631-1.05593,6.22175-4.916-1.7421-8.26467,2.97216,1.07629Z" fill="#fff"/><path d="M59.23651,214.3941a4.28649,4.28649,0,0,1,5.87407-2.03188l2.48162,1.26136,2.34371-4.609,2.2509,1.14464-6.309,12.40864-4.73251-2.4071A4.10785,4.10785,0,0,1,59.23651,214.3941Zm2.33947,1.18953a1.72934,1.72934,0,0,0,.85517,2.48769l2.30448,1.17158L66.484,215.804l-2.30448-1.17158A1.8879,1.8879,0,0,0,61.576,215.58364Z" fill="#fff"/><path d="M53.20282,202.01979l1.36161-2.0799,7.83815,5.12926-7.6235,11.64858-7.67165-5.0198,1.36107-2.081,5.49183,3.59449,1.72074-2.63019L50.68875,207.314l1.36106-2.07991,4.99233,3.26722,1.819-2.77867Z" fill="#fff"/><path d="M47.38172,194.14911l-.98009,5.82461,1.27022,1.0531,3.26116-3.93437,1.94429,1.61193L43.995,209.4209l-3.78124-3.1348a4.119,4.119,0,0,1-.59394-6.04434,4.425,4.425,0,0,1,4.51782-1.52494l.97831-6.4457Zm-1.28285,8.77624-1.68437-1.396a1.88873,1.88873,0,0,0-2.74852.35615,1.73832,1.73832,0,0,0,.2872,2.6137l1.68382,1.396Z" fill="#fff"/><path d="M41.94227,189.05909l1.97946,1.93-9.716,9.96806-1.97947-1.92888Z" fill="#fff"/><path d="M31.86563,181.59154l1.88287-1.62489,6.11883,7.09442-10.54291,9.09325-5.989-6.94247,1.88286-1.62379,4.287,4.97031,2.37978-2.05283-3.89765-4.51887,1.88286-1.62379,3.8971,4.51886,2.51511-2.17014Z" fill="#fff"/><path d="M14.80166,177.08195l11.533-7.79134,1.45824,2.1587-4.3643,9.59391.14507.21476,7.447-5.03075,1.4577,2.15759-11.533,7.79134-1.46907-2.1742,4.16615-9.46076-.13315-.19815-7.24935,4.8976Z" fill="#fff"/><path d="M16.41745,159.2283a5.80346,5.80346,0,0,1,6.39448,3.15538c1.64645,3.24561.18271,6.95354-3.45244,8.79764s-7.48265.85324-9.1291-2.39237a5.84211,5.84211,0,0,1,1.22194-7.04116l1.3583,2.6776a2.74782,2.74782,0,0,0-.25745,3.14007c1.02545,2.02229,3.25969,2.33792,5.56488,1.16811,2.30518-1.16871,3.36045-3.176,2.32583-5.21482a2.69365,2.69365,0,0,0-2.66815-1.61176Z" fill="#fff"/><path d="M14.0218,147.7976l2.337-.8474,3.193,8.80629L6.46372,160.50214l-3.1251-8.61982,2.337-.8474,2.2371,6.17025,2.95437-1.07072L8.833,150.52474l2.33757-.84739,2.03353,5.60972,3.12265-1.13273Z" fill="#fff"/><rect x="186.11097" y="118.73503" width="2.89962" height="13.04764" fill="#fff"/><rect x="181.03718" y="123.80947" width="13.04743" height="2.89919" fill="#fff"/></svg>