<svg id="Layer_1" data-name="Layer 1" xmlns="http://www.w3.org/2000/svg" viewBox="0 0 32 26"><title>twitter-icon</title><path d="M29.7771,4.38931a10.19178,10.19178,0,0,1-3.27206.86107,4.869,4.869,0,0,0,2.411-3.09985,11.2988,11.2988,0,0,1-3.61649,1.37771,6.01366,6.01366,0,0,0-4.13313-1.72214,5.70141,5.70141,0,0,0-5.51084,5.68305,2.55352,2.55352,0,0,0,.17221,1.2055A15.84648,15.84648,0,0,1,4.11725,2.83939,5.27711,5.27711,0,0,0,3.4284,5.767,5.65159,5.65159,0,0,0,6.0116,10.41679,7.217,7.217,0,0,1,3.4284,9.72794h0A5.559,5.559,0,0,0,7.906,15.23878,4.76783,4.76783,0,0,1,6.356,15.411a2.18425,2.18425,0,0,1-1.03328-.17221,5.57989,5.57989,0,0,0,5.33863,3.96092,10.95079,10.95079,0,0,1-7.06076,2.411H2.2229a16.8024,16.8024,0,0,0,8.61069,2.58321c10.33283,0,16.01588-8.61069,16.01588-16.01588V7.48916A10.012,10.012,0,0,0,29.7771,4.38931Z" fill="#fff"/></svg>